<svg width="52" height="69" viewBox="0 0 52 69" fill="none" xmlns="http://www.w3.org/2000/svg">
<path d="M51.5 16.5263V17.3311H34.5V0.331055H35.3047C36.1501 0.331055 36.9609 0.666937 37.5587 1.26459L50.5665 14.2724C51.1642 14.8702 51.5 15.681 51.5 16.5263ZM33.4375 21.5811C31.6844 21.5811 30.25 20.1467 30.25 18.3936V0.331055H3.6875C1.92707 0.331055 0.5 1.75812 0.5 3.51855V65.1436C0.5 66.904 1.92707 68.3311 3.6875 68.3311H48.3125C50.0729 68.3311 51.5 66.904 51.5 65.1436V21.5811H33.4375ZM16.8633 53.5231C16.7989 53.5918 16.7216 53.6472 16.6357 53.686C16.5499 53.7248 16.4573 53.7464 16.3632 53.7494C16.269 53.7525 16.1752 53.7369 16.0871 53.7037C15.999 53.6705 15.9182 53.6202 15.8495 53.5558L7.23452 45.4792C7.16297 45.4121 7.10594 45.3311 7.06695 45.2411C7.02797 45.1511 7.00785 45.0541 7.00785 44.956C7.00785 44.8579 7.02797 44.7609 7.06695 44.6709C7.10594 44.5809 7.16297 44.4999 7.23452 44.4328L15.8495 36.3562C15.9182 36.2918 15.999 36.2415 16.0871 36.2083C16.1752 36.1751 16.269 36.1595 16.3632 36.1626C16.4573 36.1656 16.5499 36.1871 16.6357 36.226C16.7216 36.2648 16.7989 36.3201 16.8633 36.3889L19.4636 39.1626C19.5293 39.2327 19.5803 39.3153 19.6135 39.4055C19.6467 39.4957 19.6614 39.5916 19.6568 39.6875C19.6522 39.7835 19.6283 39.8776 19.5867 39.9642C19.545 40.0507 19.4864 40.1281 19.4142 40.1915L14.0004 44.9561L19.4142 49.7206C19.4864 49.784 19.545 49.8614 19.5867 49.9479C19.6283 50.0345 19.6522 50.1286 19.6568 50.2246C19.6614 50.3205 19.6467 50.4164 19.6135 50.5066C19.5803 50.5968 19.5293 50.6794 19.4636 50.7495L16.8633 53.5231ZM23.6759 60.2274L20.0298 59.1689C19.8472 59.1158 19.693 58.9923 19.6014 58.8257C19.5097 58.659 19.488 58.4628 19.5409 58.2801L27.7009 30.1735C27.754 29.9908 27.8774 29.8367 28.0441 29.745C28.2108 29.6534 28.407 29.6316 28.5897 29.6846L32.2357 30.7431C32.3261 30.7694 32.4105 30.8132 32.484 30.8721C32.5576 30.931 32.6188 31.0038 32.6641 31.0863C32.7095 31.1688 32.7382 31.2595 32.7486 31.3531C32.7589 31.4467 32.7507 31.5415 32.7244 31.6319L24.5644 59.7385C24.5382 59.8289 24.4945 59.9134 24.4356 59.9869C24.3768 60.0604 24.304 60.1217 24.2215 60.1671C24.139 60.2125 24.0483 60.2412 23.9547 60.2515C23.8611 60.2619 23.7664 60.2537 23.6759 60.2274ZM45.0311 45.4792L36.4161 53.5558C36.3474 53.6202 36.2667 53.6705 36.1785 53.7037C36.0904 53.7369 35.9966 53.7525 35.9024 53.7494C35.8083 53.7464 35.7157 53.7248 35.6299 53.686C35.5441 53.6472 35.4667 53.5918 35.4023 53.5231L32.8019 50.7493C32.7361 50.6792 32.6852 50.5967 32.652 50.5065C32.6188 50.4163 32.6041 50.3204 32.6087 50.2244C32.6133 50.1285 32.6372 50.0344 32.6788 49.9478C32.7205 49.8612 32.7791 49.7839 32.8513 49.7204L38.2652 44.9561L32.8514 40.1915C32.7793 40.1281 32.7206 40.0507 32.679 39.9642C32.6373 39.8776 32.6135 39.7835 32.6088 39.6875C32.6042 39.5916 32.619 39.4957 32.6521 39.4055C32.6853 39.3153 32.7363 39.2327 32.802 39.1626L35.4025 36.3889C35.4669 36.3201 35.5442 36.2648 35.63 36.226C35.7158 36.1871 35.8084 36.1656 35.9026 36.1626C35.9967 36.1595 36.0905 36.1751 36.1787 36.2083C36.2668 36.2415 36.3475 36.2918 36.4162 36.3562L45.0312 44.4328C45.1028 44.4999 45.1598 44.5809 45.1988 44.6709C45.2378 44.7609 45.2579 44.8579 45.2578 44.956C45.2578 45.0541 45.2377 45.1511 45.1987 45.2411C45.1597 45.3311 45.1027 45.4121 45.0311 45.4792Z" fill="black"/>
</svg>
